<?xml version="1.0" encoding="UTF-8"?>
<svg version="1.1" xmlns="http://www.w3.org/2000/svg" width="512" height="512">
<path d="M0 0 C1.47189794 -0.07453099 1.47189794 -0.07453099 2.97353119 -0.15056765 C6.26759088 -0.31326872 9.56210837 -0.46138708 12.85691833 -0.60806274 C14.58882919 -0.68924913 14.58882919 -0.68924913 16.35572815 -0.77207565 C38.62865883 -1.81324161 60.9099826 -2.45821993 83.20127181 -2.94178762 C86.87023508 -3.02146278 90.5391308 -3.10392621 94.20799255 -3.18814087 C95.30296209 -3.21320003 95.30296209 -3.21320003 96.42005222 -3.23876543 C106.64973505 -3.47920833 116.86079521 -3.88505527 127.07875611 -4.42736166 C236.57073037 -10.23549767 236.57073037 -10.23549767 271.91863972 20.17336828 C293.92059347 40.03843915 313.50642486 65.34950414 315.78376961 95.80311584 C316.10856033 105.55940708 315.2104355 115.09046691 313.99382019 124.75888062 C313.14380146 132.16150602 312.79971726 139.60426417 312.38222885 147.04144764 C312.05080586 152.81138141 311.65548216 158.54324918 311.01274109 164.28761292 C309.66955287 177.27153838 310.69532442 185.56285255 317.35723114 196.83410072 C326.37691829 214.16406282 325.4066516 239.30236589 320.32737732 257.6980896 C315.67278534 272.08468451 308.69575387 286.31805801 297.26487732 296.5105896 C296.62550232 297.2324646 295.98612732 297.9543396 295.32737732 298.6980896 C295.8766365 304.3051831 298.88309431 308.56024042 301.76487732 313.2605896 C302.24892029 314.11072632 302.73296326 314.96086304 303.23167419 315.83676147 C306.75002126 321.56587069 309.66961608 323.73022714 316.01829529 325.83529663 C321.87089603 328.02213222 324.95575119 333.82855573 328.13987732 338.8855896 C328.82787415 339.96308472 328.82787415 339.96308472 329.5297699 341.06234741 C335.92068991 351.12478042 342.13302528 361.30204637 348.34837341 371.47348022 C349.74449811 373.7483402 351.1474414 376.01767349 352.56028748 378.28207397 C352.9268898 378.87163879 353.29349213 379.46120361 353.67120361 380.06863403 C354.69682864 381.7169357 355.7255157 383.36333091 356.75437927 385.00961304 C360.06833991 390.67364137 359.99902658 396.29399199 359.32737732 402.6980896 C357.09027885 410.09933126 352.71642853 415.43476361 346.32737732 419.6980896 C339.04117064 423.60038606 330.54488542 424.66844254 322.53831482 422.63168335 C317.32097637 420.42860227 313.42208509 416.34015125 310.32737732 411.6980896 C310.21522888 412.9665271 310.21522888 412.9665271 310.10081482 414.2605896 C309.00335691 423.72885395 306.79051564 429.01114925 299.45237732 435.0730896 C292.22677953 438.83040045 285.29544103 438.96596522 277.32737732 438.8230896 C276.36186951 438.81406616 275.39636169 438.80504272 274.40159607 438.79574585 C272.04325633 438.77239595 269.68545446 438.73965007 267.32737732 438.6980896 C267.34308777 439.28187378 267.35879822 439.86565796 267.37498474 440.46713257 C267.4381976 443.16901555 267.47663655 445.87074219 267.51487732 448.5730896 C267.54001404 449.4909021 267.56515076 450.4087146 267.59104919 451.3543396 C267.68577772 460.32197368 266.24110415 468.17105928 260.31565857 475.1277771 C253.09995142 480.82662636 246.82701429 481.27515218 237.91612244 481.20602417 C236.6776152 481.21226413 235.43910796 481.2185041 234.1630702 481.22493315 C230.74160055 481.23809073 227.3210141 481.23340599 223.89959884 481.22098827 C220.2035434 481.21191737 216.5075637 481.22591759 212.81152344 481.23690796 C205.57747321 481.25467608 198.34358917 481.25086085 191.10953248 481.2392574 C185.22924763 481.23021661 179.34900929 481.22900186 173.46871948 481.23335266 C172.21240835 481.23427206 172.21240835 481.23427206 170.9307172 481.23521003 C169.22916431 481.23648896 167.52761143 481.23778581 165.82605857 481.2391004 C149.87796616 481.25050119 133.92996579 481.23740036 117.98188847 481.21589893 C104.30354831 481.19802839 90.62534394 481.20113264 76.94700623 481.21957397 C61.05521742 481.24098954 45.16350923 481.2494026 29.27170801 481.23712492 C27.57648374 481.23585075 25.88125945 481.23459327 24.18603516 481.23335266 C23.35199534 481.23273556 22.51795553 481.23211846 21.65864179 481.23148265 C15.78676157 481.22803181 9.91493258 481.23385236 4.0430603 481.24327087 C-3.11474628 481.25449987 -10.27237744 481.25143195 -17.43016398 481.2301479 C-21.08083919 481.21964949 -24.73122214 481.21549472 -28.38189507 481.22874451 C-32.34188388 481.24289935 -36.30139616 481.22597567 -40.2613678 481.20602417 C-41.98666426 481.2194085 -41.98666426 481.2194085 -43.7468152 481.23306322 C-51.30680874 481.15911957 -57.05485628 480.21109442 -62.69606018 474.73324585 C-63.14207581 474.08226929 -63.58809143 473.43129272 -64.04762268 472.7605896 C-64.50910706 472.11219116 -64.97059143 471.46379272 -65.44606018 470.79574585 C-68.21713159 466.05668424 -68.92355288 462.28940821 -68.92989159 456.79577923 C-68.93339766 456.11030381 -68.93690374 455.42482839 -68.94051605 454.71858099 C-68.94983581 452.41672252 -68.94490532 450.11511672 -68.94004822 447.81324768 C-68.94378419 446.1482125 -68.9483855 444.48317907 -68.95377886 442.81814843 C-68.96603083 438.2386342 -68.96574581 433.65919291 -68.96339011 429.07966602 C-68.9629825 424.14225629 -68.97401576 419.20487011 -68.98350525 414.26747131 C-69.00012823 404.59262264 -69.00561538 394.91779833 -69.00673001 385.24293657 C-69.00767986 377.37984778 -69.01178701 369.51676705 -69.01813126 361.6536808 C-69.03574715 339.36738129 -69.04496957 317.08110105 -69.04347031 294.79479452 C-69.0433904 293.59297711 -69.04331048 292.3911597 -69.04322815 291.15292358 C-69.04314639 289.94964121 -69.04306463 288.74635883 -69.04298039 287.50661335 C-69.04216737 268.00279225 -69.06130806 248.49904836 -69.08950488 228.99524959 C-69.11821922 208.97574747 -69.13204598 188.95628302 -69.13031733 168.93675977 C-69.12965293 157.69455888 -69.13516711 146.45243893 -69.15667343 135.21025658 C-69.17486613 125.63878143 -69.17924828 116.06742391 -69.16565458 106.49593898 C-69.15911531 101.61191314 -69.15904236 96.72811308 -69.17636108 91.84410858 C-69.19205441 87.37251237 -69.18926652 82.90132168 -69.17179282 78.42973558 C-69.16871467 76.81265874 -69.17238595 75.19555191 -69.18351297 73.57851043 C-69.24322038 64.28552723 -69.06975219 57.26559935 -63.10231018 49.70980835 C-55.15322723 42.93910704 -46.14336193 42.24774993 -36.04762268 42.5105896 C-35.04344299 42.52412476 -34.03926331 42.53765991 -33.00465393 42.55160522 C-30.56005404 42.58652808 -28.11664535 42.63556212 -25.67262268 42.6980896 C-25.69356995 41.95236694 -25.71451721 41.20664429 -25.73609924 40.43832397 C-25.81978902 37.02505235 -25.87145062 33.61199736 -25.92262268 30.1980896 C-25.97289612 28.43851929 -25.97289612 28.43851929 -26.02418518 26.6434021 C-26.11544455 18.52131819 -25.29748912 12.89871782 -19.92652893 6.6746521 C-19.36836487 6.22863647 -18.81020081 5.78262085 -18.23512268 5.3230896 C-17.67953674 4.86160522 -17.12395081 4.40012085 -16.55152893 3.9246521 C-11.2538873 0.4663164 -6.14860835 0.27234205 0 0 Z M-10.67262268 17.6980896 C-13.61856503 22.23484081 -12.89351025 27.79209319 -12.79762268 33.0105896 C-12.78859924 33.94193726 -12.77957581 34.87328491 -12.77027893 35.83285522 C-12.74680531 38.1215332 -12.71396997 40.40967632 -12.67262268 42.6980896 C-11.60525533 42.70047795 -10.53788797 42.70286631 -9.43817616 42.70532703 C16.51721895 42.76408671 42.47252096 42.83994762 68.42781353 42.93380451 C80.97953134 42.97879566 93.53122057 43.01820268 106.08299255 43.04452515 C117.021409 43.06747833 127.95973523 43.10084633 138.89808017 43.14679116 C144.69139216 43.17075949 150.48461461 43.18946462 156.27797508 43.19570351 C161.7288676 43.201738 167.17953089 43.22167866 172.63033867 43.25236511 C174.63263103 43.26117159 176.63495331 43.26486254 178.63726425 43.26309776 C181.36831614 43.26145044 184.09866477 43.278098 186.82962036 43.29936218 C188.02174992 43.29209082 188.02174992 43.29209082 189.2379629 43.28467256 C195.48604297 43.36511518 199.05490022 45.1785493 203.38957214 49.50631714 C203.94192032 50.05302567 204.49426849 50.59973419 205.06335449 51.16300964 C205.65160507 51.75530869 206.23985565 52.34760773 206.84593201 52.95785522 C207.47903793 53.58745651 208.11214386 54.2170578 208.76443481 54.86573792 C210.84775411 56.94028155 212.92370421 59.02202317 214.99925232 61.1043396 C216.4467341 62.55047387 217.89451264 63.99631117 219.34257507 65.44186401 C222.37186025 68.46820386 225.39750617 71.49812386 228.42063904 74.53060913 C232.30003975 78.42142435 236.18837675 82.30316541 240.07946396 86.18228912 C243.06841984 89.16402792 246.05260806 92.15050152 249.03536224 95.13844299 C250.46765999 96.5720766 251.90144958 98.00422134 253.33673859 99.43486023 C255.33816573 101.43122254 257.33309333 103.43385881 259.32640076 105.43832397 C259.92274826 106.03062302 260.51909576 106.62292206 261.1335144 107.23316956 C263.57142791 109.69649383 265.21614839 111.36440281 266.32737732 114.6980896 C266.31493317 116.89024373 266.24810536 119.0822443 266.15159607 121.27230835 C265.20687052 134.49057891 265.20687052 134.49057891 268.58323669 146.76205444 C272.21919172 150.0378015 276.76372417 151.17687188 281.32737732 152.6980896 C284.30393982 154.7527771 284.30393982 154.7527771 286.88987732 156.9480896 C287.63366638 157.57199585 288.37745544 158.1959021 289.14378357 158.8387146 C290.22466248 159.75910522 290.22466248 159.75910522 291.32737732 160.6980896 C292.97737732 162.0180896 294.62737732 163.3380896 296.32737732 164.6980896 C296.32737732 136.6480896 296.32737732 108.5980896 296.32737732 79.6980896 C280.56193414 79.48833532 280.56193414 79.48833532 264.79612732 79.31015015 C262.80652523 79.27783807 260.81694002 79.24446124 258.82737732 79.20980835 C257.30177185 79.2004425 257.30177185 79.2004425 255.74534607 79.19088745 C248.9586413 79.05472424 242.80961577 78.47446891 237.30393982 74.08480835 C236.85792419 73.52406616 236.41190857 72.96332397 235.95237732 72.3855896 C235.26015076 71.55607788 235.26015076 71.55607788 234.55393982 70.70980835 C230.82793731 64.59868959 230.99024449 58.3253222 230.91331482 51.3934021 C230.88426559 49.77472733 230.88426559 49.77472733 230.85462952 48.12335205 C230.7950379 44.69001065 230.74852971 41.25663536 230.70237732 37.8230896 C230.66417879 35.48974196 230.62512597 33.15640814 230.58518982 30.8230896 C230.48935315 25.11487928 230.4042462 19.40658516 230.32737732 13.6980896 C200.49193173 13.60684146 170.65649084 13.53605207 140.82093578 13.49382828 C137.29866867 13.48882545 133.77640183 13.48364816 130.25413513 13.47836304 C129.55291452 13.4773138 128.85169391 13.47626455 128.1292242 13.47518352 C116.77478085 13.45777773 105.42041851 13.42623912 94.06602322 13.38947842 C82.41556972 13.35207376 70.76516347 13.33015418 59.11465275 13.32173562 C52.57062083 13.31651562 46.02677264 13.30422562 39.48279953 13.27516937 C33.32525202 13.24805004 27.16796418 13.23963769 21.01036263 13.24565887 C18.74883807 13.24455709 16.48730496 13.23658275 14.22583199 13.2212677 C11.14037211 13.20139481 8.05589537 13.20614111 4.97041321 13.21707153 C3.62506951 13.19959448 3.62506951 13.19959448 2.25254714 13.18176436 C-3.16494986 13.23371343 -6.48915709 13.91247521 -10.67262268 17.6980896 Z M244.32737732 24.6980896 C244.20350512 29.73339923 244.11291218 34.76781657 244.05271912 39.80429077 C244.02762018 41.51636205 243.99353303 43.22832664 243.95018005 44.94003296 C243.88931993 47.40522605 243.861123 49.86899945 243.83909607 52.33480835 C243.81328964 53.09645798 243.78748322 53.8581076 243.76089478 54.64283752 C243.75890471 58.43884543 244.20599342 60.51719453 246.33518982 63.6902771 C250.16231226 66.2583462 253.24118713 66.33712909 257.69065857 66.18637085 C258.87863289 66.17575874 258.87863289 66.17575874 260.09060669 66.16493225 C262.60801121 66.13705204 265.12315088 66.0743316 267.63987732 66.0105896 C269.35143362 65.98549821 271.06302497 65.96268651 272.77464294 65.94223022 C276.95975386 65.88724707 281.14318228 65.80102377 285.32737732 65.6980896 C280.89778583 60.39754261 276.22916694 55.4531172 271.33909607 50.57699585 C270.5952919 49.83223495 269.85148773 49.08747406 269.08514404 48.32014465 C267.52575906 46.76008341 265.96512754 45.20126724 264.40330505 43.64364624 C262.00117431 41.2469174 259.60448481 38.84483898 257.20823669 36.44223022 C255.68967743 34.92433095 254.17080843 33.40674146 252.65159607 31.88949585 C251.93187119 31.16774673 251.2121463 30.44599762 250.47061157 29.70237732 C249.80934769 29.04426559 249.1480838 28.38615387 248.46678162 27.70809937 C247.88309311 27.12520645 247.2994046 26.54231354 246.69802856 25.9417572 C245.51241106 24.58609481 245.51241106 24.58609481 244.32737732 24.6980896 Z M-53.67262268 60.6980896 C-55.50744869 65.06923057 -55.92363987 68.80830882 -55.92709827 73.52321529 C-55.93030475 74.1881953 -55.93351123 74.8531753 -55.93681487 75.53830621 C-55.94510989 77.76442078 -55.93919244 79.99026596 -55.93331909 82.21638489 C-55.93634 83.82937311 -55.94022918 85.44235991 -55.94491166 87.05534416 C-55.95520813 91.4863138 -55.95300564 95.91720267 -55.94873106 100.34817898 C-55.94626685 105.12740208 -55.95527419 109.90660558 -55.96276855 114.68582153 C-55.97552582 124.0480443 -55.97730798 133.41023839 -55.97496829 142.77246838 C-55.97318621 150.38096486 -55.97493241 157.98945263 -55.97919273 165.59794807 C-55.97978792 166.68028032 -55.98038311 167.76261256 -55.98099634 168.87774276 C-55.98220807 171.07640044 -55.9834222 173.27505811 -55.98463871 175.47371579 C-55.9955181 196.09815129 -55.9933498 216.72257044 -55.98725387 237.34700686 C-55.98208371 256.22094105 -55.99334207 275.09482363 -56.01235209 293.96874761 C-56.03171668 313.34303886 -56.03998895 332.71730568 -56.03622884 352.09160668 C-56.03431478 362.97101003 -56.03682429 373.85036946 -56.05094337 384.72976494 C-56.06284054 393.99088247 -56.06428074 403.25192903 -56.05215321 412.51304751 C-56.04625297 417.2389494 -56.04519668 421.96472137 -56.05715561 426.6906147 C-56.06797521 431.01649699 -56.06495798 435.34214027 -56.05089393 439.6680112 C-56.04823616 441.23322182 -56.05064727 442.79845094 -56.05862979 444.36364346 C-56.0687302 446.49175822 -56.06031966 448.61904124 -56.04735279 450.74712276 C-56.04740781 451.92897748 -56.04746282 453.11083219 -56.04751951 454.32850069 C-55.48420023 459.39163876 -54.35218163 463.33849396 -50.30852073 466.6118198 C-47.48697099 467.7745978 -45.53909816 468.07486992 -42.49825382 468.07840633 C-41.47136387 468.08684627 -40.44447392 468.09528622 -39.38646609 468.10398191 C-38.26507516 468.09797187 -37.14368424 468.09196182 -35.98831177 468.08576965 C-34.19353241 468.09384796 -34.19353241 468.09384796 -32.36249489 468.10208946 C-29.04454026 468.11392356 -25.72708771 468.11229646 -22.40915287 468.10492265 C-18.82965499 468.10019575 -15.25021118 468.11269658 -11.67073059 468.12294006 C-4.65955597 468.14014277 2.3515291 468.14096504 9.36271935 468.13572716 C15.06097562 468.13168699 20.7592054 468.13312719 26.4574604 468.13847542 C27.26823146 468.13922384 28.07900252 468.13997226 28.91434239 468.14074336 C30.56138134 468.14227483 32.20842028 468.14381318 33.85545922 468.14535833 C49.30367546 468.15908867 64.75184106 468.15364192 80.20005614 468.14217312 C94.33479533 468.13223995 108.46940363 468.14518189 122.60412263 468.16910731 C137.11594278 468.19348608 151.62770194 468.20310921 166.13954216 468.19645458 C174.28753946 468.19295967 182.43543607 468.19521237 190.58341789 468.21270561 C197.51956488 468.22741233 204.4555403 468.22808317 211.39168387 468.2106347 C214.93071009 468.20210961 218.46942962 468.20001151 222.00844002 468.21528625 C225.84447875 468.23163807 229.6800419 468.21701521 233.51608276 468.19929504 C235.19482307 468.21370255 235.19482307 468.21370255 236.90747732 468.22840112 C242.98868349 468.17042846 246.78684042 467.91880315 251.32737732 463.6980896 C253.57783251 460.56248556 253.57484282 457.81425404 253.56788635 454.01602173 C253.57063568 452.85778397 253.57338501 451.6995462 253.57621765 450.50621033 C253.5690271 449.23954025 253.56183655 447.97287018 253.5544281 446.66781616 C253.55386382 445.31748971 253.55418088 443.96716264 253.55531311 442.61683655 C253.55588696 438.95391329 253.54412743 435.29112101 253.5301652 431.62822819 C253.51766325 427.79920681 253.51648776 423.97018244 253.51411438 420.1411438 C253.50789804 412.89159955 253.49148513 405.64211561 253.4714154 398.39259791 C253.44906121 390.13874081 253.43806418 381.88488083 253.42802453 373.631001 C253.40711903 356.65332897 253.37194005 339.67571566 253.32737732 322.6980896 C252.30193817 322.8397908 251.27649902 322.981492 250.21998596 323.12748718 C248.85882587 323.31299995 247.49764947 323.498393 246.13645935 323.6836853 C245.46246597 323.77714485 244.7884726 323.8706044 244.09405518 323.96689606 C239.09593829 324.64376604 234.23852328 324.97706835 229.20237732 324.8855896 C228.52046326 324.88494507 227.83854919 324.88430054 227.13597107 324.88363647 C222.58437721 324.84605451 218.07221423 324.54538756 213.53489685 324.18759155 C212.37056122 324.09629471 211.20622559 324.00499786 210.00660706 323.91093445 C209.12246124 323.84069565 208.23831543 323.77045685 207.32737732 323.6980896 C207.32406717 324.29407896 207.32075703 324.89006832 207.31734657 325.50411797 C207.23619853 339.99217167 207.14413322 354.48012538 207.03985023 368.96803093 C206.98968465 375.97421959 206.94324232 382.9803963 206.90550232 389.98666382 C206.86909858 396.7429337 206.82240233 403.49905956 206.76931381 410.25522232 C206.75072275 412.83809289 206.7356324 415.42099101 206.72403336 418.00390244 C206.7072514 421.61027028 206.67823605 425.21634114 206.64622498 428.82260132 C206.6429847 430.43884399 206.6429847 430.43884399 206.63967896 432.08773804 C206.62293373 433.55592484 206.62293373 433.55592484 206.60585022 435.05377197 C206.60031946 435.90735228 206.5947887 436.76093258 206.58909035 437.64037895 C206.32737732 439.6980896 206.32737732 439.6980896 204.32737732 441.6980896 C201.27746303 441.92280621 198.32111584 442.02628171 195.26878357 442.0340271 C194.36869064 442.0406839 193.46859772 442.0473407 192.54122925 442.05419922 C190.63557482 442.06433442 188.72988484 442.06901597 186.82420349 442.06869507 C183.90474612 442.07306733 180.98680127 442.1093744 178.06761169 442.14730835 C176.2180075 442.15317645 174.36839611 442.15714589 172.51878357 442.1590271 C171.64371658 442.17339813 170.7686496 442.18776917 169.86706543 442.20257568 C169.05289658 442.19642242 168.23872772 442.19026917 167.39988708 442.18392944 C166.68422073 442.18677948 165.96855438 442.18962952 165.23120117 442.19256592 C162.43898099 441.46734822 161.79505436 440.14070589 160.32737732 437.6980896 C159.96496296 435.00054741 159.96496296 435.00054741 159.98248291 431.85552979 C159.98101761 430.06412315 159.98101761 430.06412315 159.97952271 428.23652649 C160.00052788 426.2759304 160.00052788 426.2759304 160.0219574 424.27572632 C160.02603899 422.8825158 160.02868857 421.48930046 160.03001404 420.09608459 C160.03522917 417.09656591 160.04919555 414.09725881 160.06951332 411.09780502 C160.10022292 406.347987 160.10283736 401.59841225 160.1000061 396.84851074 C160.09569053 383.3418268 160.11897035 369.83543922 160.19334412 356.32894897 C160.23418545 348.86849489 160.24626801 341.4085531 160.22710723 333.9480058 C160.21658385 329.23338317 160.24094074 324.520675 160.29147971 319.80633235 C160.31450233 316.8610799 160.3037497 313.91664434 160.28376007 310.97139931 C160.27991401 308.97174522 160.31562718 306.97213495 160.35287476 304.9728241 C160.25211669 296.87802078 158.64088651 292.46682171 153.23920727 286.38641548 C151.50262254 284.47744494 151.50262254 284.47744494 149.32737732 284.6980896 C147.93799655 286.65956834 146.60133622 288.65975536 145.32737732 290.6980896 C145.80175232 291.4405896 146.27612732 292.1830896 146.76487732 292.9480896 C149.76416204 298.22683071 150.07867072 303.73042952 149.32737732 309.6980896 C147.14710174 316.19192763 144.10482696 321.00052183 138.32737732 324.6980896 C131.40858117 327.43949939 124.59392974 327.85877315 117.63987732 325.1355896 C112.26350724 322.48500156 108.90259268 318.65605027 106.11253357 313.4168396 C105.0979089 309.90351238 105.70876619 307.24654486 106.20237732 303.6355896 C106.36297021 298.28551725 106.36297021 298.28551725 103.84642029 293.7996521 C101.87060183 291.90465565 99.84445149 290.25825929 97.63987732 288.6355896 C96.91977478 288.10505981 96.19967224 287.57453003 95.45774841 287.02792358 C93.44020917 285.68343396 91.5930653 284.56069659 89.32737732 283.6980896 C86.45684965 284.11138646 86.45684965 284.11138646 84.32737732 285.6980896 C79.73299771 288.49954058 76.41909956 289.83759473 71.01487732 289.8855896 C70.29686951 289.89976929 69.57886169 289.91394897 68.83909607 289.92855835 C65.52121418 289.62411818 62.50363443 288.67688747 59.32737732 287.6980896 C58.77763245 288.45146606 58.77763245 288.45146606 58.21678162 289.22006226 C57.11434419 290.72884185 56.01044939 292.23655712 54.90550232 293.74349976 C53.63813117 295.47271509 52.37383767 297.20419004 51.11253357 298.93783569 C48.14728266 302.98729398 45.164674 306.96513871 41.87815857 310.7605896 C36.62587388 316.31582328 36.62587388 316.31582328 34.09690857 323.2059021 C34.58545313 325.45810768 34.58545313 325.45810768 35.48362732 327.5496521 C37.49915278 332.68177713 36.77262759 338.23865815 35.20237732 343.3855896 C31.80343097 349.39039482 28.41863216 354.17363783 21.59690857 356.2605896 C14.40057024 357.64783554 8.35778619 357.43852196 1.98362732 353.67074585 C0.17660026 352.53242614 0.17660026 352.53242614 -2.67262268 351.6980896 C-3.67262268 350.0730896 -3.67262268 350.0730896 -4.67262268 347.6980896 C-5.47699768 346.2130896 -5.47699768 346.2130896 -6.29762268 344.6980896 C-8.69098211 338.99084788 -8.87044643 332.07573674 -6.80543518 326.2527771 C-5.83860933 324.34029677 -4.77428486 322.53419324 -3.67262268 320.6980896 C-3.34262268 319.7080896 -3.01262268 318.7180896 -2.67262268 317.6980896 C-1.04762268 316.6980896 -1.04762268 316.6980896 1.32737732 315.6980896 C2.37538513 315.1618396 3.42339294 314.6255896 4.50315857 314.0730896 C8.54154326 312.32766827 11.56312802 312.99952261 15.88987732 313.6980896 C20.00208115 314.00936624 23.02173152 313.80159227 26.25120544 311.07211304 C30.28062789 306.47652041 33.45771705 301.32873107 36.68577576 296.15560913 C38.21413844 293.8676111 39.81490851 291.89949997 41.67893982 289.88168335 C47.60903649 283.69839705 47.60903649 283.69839705 49.63987732 275.63168335 C49.46484356 272.86756833 49.08818416 270.14979624 48.69847107 267.4090271 C48.15907032 262.01501961 49.33916501 258.17615135 52.32737732 253.6980896 C56.51508166 248.96588469 61.00530655 246.06390021 67.37815857 245.3621521 C75.12971523 245.26931909 81.0315309 245.67761795 86.85081482 251.12387085 C89.90764057 254.54292162 92.27516469 258.02908387 92.36668396 262.70736694 C92.45468358 266.1220466 92.5784007 268.73152803 94.71653748 271.49081421 C96.5762276 273.13278327 98.48678418 274.58227377 100.51487732 276.0105896 C101.17552185 276.50881226 101.83616638 277.00703491 102.51683044 277.52035522 C106.35759078 280.39049893 110.31683116 283.07221101 114.32737732 285.6980896 C115.6016156 284.94012085 115.6016156 284.94012085 116.90159607 284.1668396 C120.84307174 282.4769937 122.93148068 282.70687383 127.13987732 283.1980896 C131.60173392 283.30726269 133.65917088 283.16808454 137.34300232 280.57699585 C141.81990435 275.70738489 141.81990435 275.70738489 143.34300232 269.49105835 C142.66735361 267.39001589 142.66735361 267.39001589 141.57347107 265.2762146 C140.00253468 262.02600138 139.10310284 258.67763981 138.20237732 255.1980896 C138.02972351 254.54098999 137.8570697 253.88389038 137.67918396 253.20687866 C136.42776971 248.33802831 135.52289676 243.71642187 135.32737732 238.6980896 C135.27581482 237.6152771 135.22425232 236.5324646 135.17112732 235.4168396 C134.53751285 210.28346571 142.54786672 186.56700286 159.32737732 167.6980896 C159.97964294 166.95172241 160.63190857 166.20535522 161.30393982 165.43637085 C176.34517779 149.2966155 199.38130855 138.73046587 221.41697693 137.5899353 C223.72163838 137.5279208 226.02188994 137.50870391 228.32737732 137.5105896 C229.1495575 137.50994507 229.97173767 137.50930054 230.8188324 137.50863647 C238.47205252 137.57367591 245.77130574 138.50108816 253.32737732 139.6980896 C253.32737732 134.0880896 253.32737732 128.4780896 253.32737732 122.6980896 C251.92568298 122.6887439 250.52398865 122.67939819 249.07981873 122.66976929 C243.84252507 122.62967419 238.60580681 122.56386134 233.36888123 122.49057007 C231.10919121 122.46247331 228.84940498 122.44120303 226.58958435 122.42709351 C223.32720579 122.40550741 220.06597046 122.35877611 216.80393982 122.3074646 C215.80561127 122.30623596 214.80728271 122.30500732 213.77870178 122.30374146 C206.59611607 122.15624643 199.42280294 121.01682653 193.67298889 116.35745239 C187.74510211 109.87338509 188.00730091 101.76335271 187.91331482 93.51449585 C187.88426559 91.93123756 187.88426559 91.93123756 187.85462952 90.31599426 C187.79513179 86.9642734 187.74856767 83.61251763 187.70237732 80.2605896 C187.66417012 77.97997615 187.62511681 75.69937671 187.58518982 73.41879272 C187.4894549 67.8453499 187.40432115 62.27182183 187.32737732 56.6980896 C157.49193173 56.60684146 127.65649084 56.53605207 97.82093578 56.49382828 C94.29866867 56.48882545 90.77640183 56.48364816 87.25413513 56.47836304 C86.55291452 56.4773138 85.85169391 56.47626455 85.1292242 56.47518352 C73.77478085 56.45777773 62.42041851 56.42623912 51.06602322 56.38947842 C39.41556972 56.35207376 27.76516347 56.33015418 16.11465275 56.32173562 C9.57062083 56.31651562 3.02677264 56.30422562 -3.51720047 56.27516937 C-9.67474798 56.24805004 -15.83203582 56.23963769 -21.98963737 56.24565887 C-24.25116193 56.24455709 -26.51269504 56.23658275 -28.77416801 56.2212677 C-31.85962789 56.20139481 -34.94410463 56.20614111 -38.02958679 56.21707153 C-39.37493049 56.19959448 -39.37493049 56.19959448 -40.74745286 56.18176436 C-46.1495625 56.23356588 -49.54548007 56.86117589 -53.67262268 60.6980896 Z M201.32737732 67.6980896 C201.20350512 72.73339923 201.11291218 77.76781657 201.05271912 82.80429077 C201.02762018 84.51636205 200.99353303 86.22832664 200.95018005 87.94003296 C200.88931993 90.40522605 200.861123 92.86899945 200.83909607 95.33480835 C200.81328964 96.09645798 200.78748322 96.8581076 200.76089478 97.64283752 C200.75890471 101.43884543 201.20599342 103.51719453 203.33518982 106.6902771 C207.16231226 109.2583462 210.24118713 109.33712909 214.69065857 109.18637085 C215.87863289 109.17575874 215.87863289 109.17575874 217.09060669 109.16493225 C219.60801121 109.13705204 222.12315088 109.0743316 224.63987732 109.0105896 C226.35143362 108.98549821 228.06302497 108.96268651 229.77464294 108.94223022 C233.95975386 108.88724707 238.14318228 108.80102377 242.32737732 108.6980896 C237.89778583 103.39754261 233.22916694 98.4531172 228.33909607 93.57699585 C227.5952919 92.83223495 226.85148773 92.08747406 226.08514404 91.32014465 C224.52575906 89.76008341 222.96512754 88.20126724 221.40330505 86.64364624 C219.00117431 84.2469174 216.60448481 81.84483898 214.20823669 79.44223022 C212.68967743 77.92433095 211.17080843 76.40674146 209.65159607 74.88949585 C208.93187119 74.16774673 208.2121463 73.44599762 207.47061157 72.70237732 C206.80934769 72.04426559 206.1480838 71.38615387 205.46678162 70.70809937 C204.88309311 70.12520645 204.2994046 69.54231354 203.69802856 68.9417572 C202.51241106 67.58609481 202.51241106 67.58609481 201.32737732 67.6980896 Z M191.32737732 159.6980896 C190.48819763 160.13894897 189.64901794 160.57980835 188.78440857 161.0340271 C182.16611889 164.74847805 176.72526124 169.38898667 171.32737732 174.6980896 C170.62612732 175.38644897 169.92487732 176.07480835 169.20237732 176.7840271 C154.61540481 192.1117443 147.72283996 212.94842446 147.91038513 233.85971069 C148.67224688 256.48893334 159.41959287 276.74904174 175.56175232 292.3465271 C193.65055394 307.72711831 216.05062421 313.42782191 239.32737732 311.6980896 C246.42181438 310.65108091 253.28949374 308.57552859 259.95237732 305.9480896 C263.433466 304.65879749 265.66270191 304.11507306 269.32737732 304.6980896 C272.37946905 307.35675354 274.46331187 310.24102226 276.56175232 313.6824646 C277.42220154 315.08432007 277.42220154 315.08432007 278.30003357 316.51449585 C278.88655701 317.48258179 279.47308044 318.45066772 280.07737732 319.4480896 C280.67936951 320.43164429 281.28136169 321.41519897 281.90159607 322.42855835 C283.38189154 324.84872397 284.85693766 327.2719277 286.32737732 329.6980896 C289.87256616 328.30049055 289.87256616 328.30049055 293.32737732 326.6980896 C292.05452429 323.25640669 290.5782032 320.35948392 288.50706482 317.33480835 C287.97210388 316.52978882 287.43714294 315.72476929 286.88597107 314.89535522 C285.76654869 313.22661073 284.63634955 311.56504362 283.49534607 309.91098022 C279.98366579 304.57543694 278.28414985 301.11741594 279.32737732 294.6980896 C280.79612732 292.7371521 280.79612732 292.7371521 282.82737732 291.3230896 C297.76724582 279.61843911 306.06674949 261.03303788 309.32737732 242.6980896 C311.06324538 219.97138667 306.91848233 198.40981912 291.96800232 180.59262085 C291.15589294 179.65482788 291.15589294 179.65482788 290.32737732 178.6980896 C289.70089294 177.8834021 289.07440857 177.0687146 288.42893982 176.2293396 C276.64978535 162.04180783 257.48859259 152.95134211 239.32737732 150.6980896 C222.06233366 149.59627154 206.76804678 151.48547847 191.32737732 159.6980896 Z M64.32737732 260.6980896 C61.96920241 263.05626451 61.38459473 264.31391553 60.88987732 267.6355896 C61.42817869 271.40369918 62.70300756 272.99653249 65.32737732 275.6980896 C68.14739059 277.10809624 70.19744987 276.94357411 73.32737732 276.6980896 C76.10572781 275.43520301 77.81840504 274.3458725 79.70237732 271.9480896 C80.64435534 268.55696873 80.17489931 266.08817757 79.32737732 262.6980896 C77.22189605 259.73481966 75.85307773 258.86586632 72.38987732 257.7605896 C68.66562344 257.68458442 67.23606955 258.4183038 64.32737732 260.6980896 Z M120.32737732 297.6980896 C118.20847551 300.87644232 117.78397712 302.89288175 117.88206482 306.6902771 C118.24552151 309.08875357 118.24552151 309.08875357 120.95237732 311.6980896 C124.62804633 313.87626383 126.15936577 314.49621947 130.32737732 313.6980896 C133.02728394 311.89815186 134.86926382 310.6143166 136.32737732 307.6980896 C136.82466067 303.30541998 136.85959664 301.39757785 134.13987732 297.8230896 C128.83830293 293.81745562 125.92774051 294.21341917 120.32737732 297.6980896 Z M173.32737732 307.6980896 C173.32737732 347.6280896 173.32737732 387.5580896 173.32737732 428.6980896 C179.92737732 428.6980896 186.52737732 428.6980896 193.32737732 428.6980896 C193.32737732 392.3980896 193.32737732 356.0980896 193.32737732 318.6980896 C188.37737732 316.0580896 183.42737732 313.4180896 178.32737732 310.6980896 C176.67737732 309.7080896 175.02737732 308.7180896 173.32737732 307.6980896 Z M5.32737732 330.6980896 C4.62890607 333.537776 4.62890607 335.8584032 5.32737732 338.6980896 C7.32090185 341.68837639 8.72993227 343.27618375 12.26487732 344.20980835 C14.50849646 344.40102589 16.15931465 344.31441387 18.32737732 343.6980896 C21.58670157 340.84618088 23.06683228 338.94870579 23.95237732 334.6980896 C23.06683228 330.44747341 21.58670157 328.54999832 18.32737732 325.6980896 C12.57909465 324.06400118 8.65213135 325.71095856 5.32737732 330.6980896 Z M267.32737732 325.6980896 C267.32737732 358.3680896 267.32737732 391.0380896 267.32737732 424.6980896 C286.61705171 426.63954029 286.61705171 426.63954029 294.32737732 420.6980896 C297.92177315 415.70310072 297.09356587 408.55211195 297.20237732 402.6355896 C297.21505646 401.9632428 297.2277356 401.290896 297.24079895 400.59817505 C297.34601923 387.92678171 293.86897725 379.4683975 285.85960388 369.64096069 C281.65926281 364.31490679 277.86705203 358.6110656 277.32737732 351.6980896 C277.64748491 350.19521161 277.98186028 348.69533009 278.32737732 347.1980896 C279.50764424 339.18734181 272.83000098 331.80771025 268.32737732 325.6980896 C267.99737732 325.6980896 267.66737732 325.6980896 267.32737732 325.6980896 Z M292.51487732 343.5730896 C290.94612768 346.38032579 290.55146089 348.47978596 290.32737732 351.6980896 C291.51685271 354.79859622 291.51685271 354.79859622 293.51487732 357.8855896 C293.87363953 358.48234497 294.23240173 359.07910034 294.60203552 359.69393921 C295.82339664 361.70868503 297.0722281 363.70423276 298.32737732 365.6980896 C298.77339294 366.41190796 299.21940857 367.12572632 299.67893982 367.86117554 C302.13080084 371.78038635 304.60439156 375.68493905 307.09300232 379.5809021 C309.37957198 383.1734818 311.6101507 386.79502236 313.81175232 390.4402771 C314.38836609 391.3902356 314.96497986 392.34019409 315.55906677 393.31893921 C316.67185619 395.15638754 317.77751736 396.99817739 318.87498474 398.84481812 C322.6735792 405.12105646 322.6735792 405.12105646 328.32737732 409.6980896 C335.15800016 409.6980896 339.2414628 407.6811403 344.20237732 402.8855896 C345.81680774 399.74641934 345.96050858 397.10716719 345.32737732 393.6980896 C343.72725447 390.08472541 341.67057331 386.79437931 339.57737732 383.4480896 C338.99117615 382.48515991 338.40497498 381.52223022 337.80101013 380.53012085 C335.99418013 377.57472562 334.1645134 374.63472379 332.32737732 371.6980896 C331.78339294 370.82346069 331.23940857 369.94883179 330.67893982 369.04769897 C327.72226295 364.30009968 324.73115472 359.57583452 321.71311951 354.86703491 C320.3482541 352.73076566 318.99638115 350.58678584 317.64768982 348.4402771 C316.83277116 347.15109732 316.01767774 345.86202798 315.20237732 344.5730896 C314.49854919 343.45676147 313.79472107 342.34043335 313.06956482 341.1902771 C311.56714295 338.6192898 311.56714295 338.6192898 309.32737732 337.6980896 C302.06271103 336.81180031 297.70611421 338.20284454 292.51487732 343.5730896 Z " fill="#FABC56" transform="translate(110.67262268066406,15.301910400390625)"/>
<path d="M0 0 C13.01766221 12.8644875 19.85356454 30.09099539 20.36254883 48.25952148 C20.09377077 67.85792174 12.74521243 84.04268482 -0.67651367 98.13842773 C-14.40762252 111.1975887 -32.2924151 116.40933044 -50.88745117 116.25952148 C-64.89168589 115.36119715 -77.58021594 110.4762358 -88.88745117 102.25952148 C-89.52038086 101.81092773 -90.15331055 101.36233398 -90.80541992 100.90014648 C-102.85091127 91.52836832 -111.99016589 75.35875015 -113.88745117 60.25952148 C-115.28172806 38.33700716 -112.08929096 19.75283754 -97.25463867 2.72045898 C-86.75600296 -8.19396428 -73.79122815 -15.04238096 -58.88745117 -17.74047852 C-57.78916992 -17.95317383 -57.78916992 -17.95317383 -56.66870117 -18.17016602 C-36.02786777 -21.32790545 -15.01481748 -14.1762175 0 0 Z M-86.88745117 12.25952148 C-94.55430701 21.48220371 -99.43399561 32.33322174 -100.88745117 44.25952148 C-100.97124023 44.93885742 -101.0550293 45.61819336 -101.14135742 46.31811523 C-101.9387159 59.92465183 -96.05227998 74.13453255 -87.63745117 84.50952148 C-77.82260816 95.03464919 -64.52674567 101.28523076 -50.27416992 102.47827148 C-35.62429935 102.98709477 -22.15028233 98.09106463 -11.07495117 88.57202148 C-0.08625284 77.99500349 6.11558652 64.58339929 6.42504883 49.32202148 C6.45993498 33.60968503 0.19541362 20.89651457 -10.40698242 9.58374023 C-21.56148803 -0.86811935 -35.33151502 -5.17180343 -50.38745117 -5.01782227 C-63.56874254 -3.97332261 -77.90192498 2.47657846 -86.88745117 12.25952148 Z " fill="#FABC56" transform="translate(386.887451171875,197.740478515625)"/>
<path d="M0 0 C1.20916077 -0.00287018 1.20916077 -0.00287018 2.44274902 -0.00579834 C4.14396477 -0.00715694 5.845191 -0.0034832 7.54638672 0.00488281 C10.14704729 0.01558712 12.74701711 0.00497672 15.34765625 -0.0078125 C17.00260569 -0.00649085 18.6575547 -0.00392833 20.3125 0 C21.47670471 -0.00607269 21.47670471 -0.00607269 22.66442871 -0.01226807 C29.57249864 0.04759091 29.57249864 0.04759091 32.65625 2.265625 C33.88939034 4.73190567 33.78751115 6.35858835 33.79669189 9.11753845 C33.80240204 10.1424791 33.80811218 11.16741974 33.81399536 12.22341919 C33.81511322 13.3523056 33.81623108 14.48119202 33.81738281 15.64428711 C33.82483017 17.42240028 33.82483017 17.42240028 33.83242798 19.23643494 C33.84454809 22.49261825 33.85199754 25.74876564 33.85643864 29.00496745 C33.85936818 31.03823739 33.86347272 33.07150166 33.86794281 35.10476875 C33.88161777 41.46341137 33.89128489 47.82204108 33.8951447 54.18069738 C33.89962809 61.52666408 33.91718883 68.87244494 33.9461453 76.21835512 C33.96773995 81.89313387 33.97784776 87.56786024 33.97918582 93.24267966 C33.98023529 96.63374664 33.98617307 100.02463895 34.00400543 103.41566277 C34.02098236 107.19644289 34.01920611 110.97676603 34.01269531 114.75756836 C34.02651749 116.44786163 34.02651749 116.44786163 34.0406189 118.17230225 C34.03226517 119.71394295 34.03226517 119.71394295 34.02374268 121.28672791 C34.02520924 122.18103484 34.0266758 123.07534178 34.0281868 123.99674892 C33.58042915 126.72814476 32.83447639 127.61021081 30.65625 129.265625 C28.75915527 129.64657593 28.75915527 129.64657593 26.59960938 129.65380859 C25.38319763 129.66799332 25.38319763 129.66799332 24.14221191 129.6824646 C22.83431702 129.67335556 22.83431702 129.67335556 21.5 129.6640625 C20.15198303 129.66836777 20.15198303 129.66836777 18.7767334 129.67276001 C16.87702809 129.67480115 14.9773018 129.66926778 13.07763672 129.65673828 C10.1671659 129.64068521 7.25808379 129.65658513 4.34765625 129.67578125 C2.5026011 129.67379883 0.65754681 129.66995517 -1.1875 129.6640625 C-2.05942993 129.67013519 -2.93135986 129.67620789 -3.82971191 129.6824646 C-4.64065308 129.67300812 -5.45159424 129.66355164 -6.28710938 129.65380859 C-7.35608459 129.65022842 -7.35608459 129.65022842 -8.44665527 129.64657593 C-10.92875378 129.14815183 -11.79383103 128.23503966 -13.34375 126.265625 C-14.30846781 123.37147156 -14.47150469 121.5430391 -14.47746277 118.53469849 C-14.48172775 117.56175842 -14.48599274 116.58881836 -14.49038696 115.58639526 C-14.48993378 114.52035065 -14.48948059 113.45430603 -14.48901367 112.35595703 C-14.49237228 111.23213623 -14.4957309 110.10831543 -14.49919128 108.95043945 C-14.50871249 105.22476098 -14.51064499 101.49912739 -14.51171875 97.7734375 C-14.51493053 95.18895448 -14.51829454 92.60447165 -14.52180481 90.01998901 C-14.52779902 84.59779359 -14.52968717 79.17561605 -14.52905273 73.75341797 C-14.52845213 67.48967231 -14.53900092 61.22601283 -14.5547964 54.96228898 C-14.56945657 48.93361996 -14.57304056 42.90499767 -14.57244301 36.87630844 C-14.57362457 34.31263756 -14.57805619 31.74896608 -14.58577538 29.18530655 C-14.59555559 25.601492 -14.59270485 22.01790004 -14.58666992 18.43408203 C-14.59228943 17.37208588 -14.59790894 16.31008972 -14.60369873 15.21591187 C-14.59950424 14.23733215 -14.59530975 13.25875244 -14.59098816 12.2505188 C-14.59153293 11.40360033 -14.59207769 10.55668186 -14.59263897 9.6840992 C-14.30632023 6.90191686 -13.54709743 4.78314376 -12.34375 2.265625 C-8.81736459 -0.58426138 -4.31998235 -0.02253377 0 0 Z M-0.34375 14.265625 C-0.34375 47.595625 -0.34375 80.925625 -0.34375 115.265625 C6.58625 115.265625 13.51625 115.265625 20.65625 115.265625 C20.65625 81.935625 20.65625 48.605625 20.65625 14.265625 C13.72625 14.265625 6.79625 14.265625 -0.34375 14.265625 Z " fill="#FABB56" transform="translate(171.34375,328.734375)"/>
<path d="M0 0 C0.78761719 -0.01583633 1.57523438 -0.03167267 2.38671875 -0.04798889 C3.64935547 -0.04054909 3.64935547 -0.04054909 4.9375 -0.03295898 C5.81019531 -0.03915756 6.68289062 -0.04535614 7.58203125 -0.05174255 C9.42446783 -0.05883661 11.26696857 -0.05567389 13.109375 -0.04296875 C15.9282824 -0.02909809 18.74387276 -0.06318225 21.5625 -0.10131836 C23.35416748 -0.10226954 25.14583911 -0.10041078 26.9375 -0.09545898 C27.77925781 -0.10871719 28.62101562 -0.1219754 29.48828125 -0.13563538 C30.27589844 -0.12310226 31.06351563 -0.11056915 31.875 -0.09765625 C32.90947266 -0.09621361 32.90947266 -0.09621361 33.96484375 -0.09474182 C37.2237849 0.94306254 38.21981488 2.6245572 39.9375 5.53344727 C40.49494407 8.46223629 40.46423807 11.32518014 40.42333984 14.29931641 C40.42713654 15.17144272 40.43093323 16.04356903 40.43484497 16.94212341 C40.44223996 19.81798542 40.42088445 22.69283167 40.3984375 25.56860352 C40.39605254 27.56969586 40.39514786 29.57079046 40.3956604 31.57188416 C40.39253429 35.76242116 40.3759822 39.95261557 40.34912109 44.14306641 C40.31511972 49.51558927 40.30749327 54.88773618 40.30901146 60.26035404 C40.30846776 64.39102265 40.29750095 68.52160903 40.28300858 72.65225029 C40.27664313 74.63340063 40.27270227 76.61456028 40.27122116 78.59572029 C40.26688675 81.3629661 40.24938326 84.12981261 40.22802734 86.89697266 C40.2293869 88.12596786 40.2293869 88.12596786 40.23077393 89.37979126 C40.15051321 96.48892954 40.15051321 96.48892954 37.9375 99.53344727 C34.58876458 101.20781498 30.81717138 100.73978774 27.1328125 100.77172852 C26.25728729 100.77980026 25.38176208 100.78787201 24.47970581 100.79618835 C22.62532533 100.81002948 20.77091937 100.82075151 18.91650391 100.82861328 C16.08056434 100.84583755 13.24578714 100.8897237 10.41015625 100.93383789 C8.60938358 100.94396382 6.80860099 100.95248024 5.0078125 100.95922852 C4.15978058 100.9767366 3.31174866 100.99424469 2.4380188 101.01228333 C1.24690994 101.00789497 1.24690994 101.00789497 0.03173828 101.00341797 C-0.66394257 101.00928421 -1.35962341 101.01515045 -2.0763855 101.02119446 C-5.17480661 100.26028858 -6.22511806 99.14284148 -8.0625 96.53344727 C-8.4570107 93.46800147 -8.60963619 90.76250451 -8.58007812 87.69750977 C-8.5870874 86.80602234 -8.59409668 85.91453491 -8.60131836 84.99603271 C-8.61892034 82.04985383 -8.60726775 79.10463588 -8.59375 76.15844727 C-8.59644428 74.11108211 -8.60032616 72.0637182 -8.60534668 70.01635742 C-8.61124472 65.72570614 -8.60266879 61.43538796 -8.58398438 57.14477539 C-8.56119482 51.64313239 -8.57431624 46.14226988 -8.59827423 40.64065552 C-8.61272385 36.41302604 -8.60813002 32.18558181 -8.59776306 27.95794678 C-8.59509347 25.9293407 -8.59837368 23.90071783 -8.60768127 21.87213135 C-8.61783296 19.03742889 -8.6023651 16.20399282 -8.58007812 13.36938477 C-8.58817505 12.5297821 -8.59627197 11.69017944 -8.60461426 10.82513428 C-8.5522658 7.23374968 -8.38322471 4.98770729 -6.28405762 2.01454163 C-3.91965991 0.43821694 -2.8035292 0.02519819 0 0 Z M5.9375 14.53344727 C5.9375 38.29344727 5.9375 62.05344727 5.9375 86.53344727 C12.5375 86.53344727 19.1375 86.53344727 25.9375 86.53344727 C25.9375 62.77344727 25.9375 39.01344727 25.9375 14.53344727 C19.3375 14.53344727 12.7375 14.53344727 5.9375 14.53344727 Z " fill="#FABC56" transform="translate(222.0625,357.466552734375)"/>
<path d="M0 0 C0.78872104 -0.00694553 1.57744208 -0.01389106 2.39006376 -0.02104706 C5.03576057 -0.03935915 7.68056494 -0.0290414 10.32629395 -0.01878357 C12.22185438 -0.02583989 14.11740917 -0.03458369 16.01295471 -0.04489136 C21.16374064 -0.06742615 26.31421989 -0.06443624 31.46503639 -0.05556989 C35.76201392 -0.05046654 40.05893349 -0.05774716 44.35590506 -0.06504196 C54.49045453 -0.08205363 64.62485347 -0.07846193 74.75939941 -0.06175232 C85.22280326 -0.04482388 95.68579015 -0.06067271 106.14914846 -0.0929752 C115.12674346 -0.11964319 124.10420844 -0.12695482 133.08183908 -0.11846012 C138.44645344 -0.11352346 143.81081678 -0.1157866 149.17539978 -0.13624763 C154.21852332 -0.15456127 159.26104535 -0.148699 164.30413628 -0.12404823 C166.15689733 -0.11902686 168.00970387 -0.12256434 169.86242867 -0.13519669 C172.3882315 -0.15105835 174.91203678 -0.13624362 177.43774414 -0.11352539 C178.17431732 -0.12536112 178.91089049 -0.13719685 179.66978407 -0.14939123 C183.41392105 -0.08077172 184.93918337 0.25099047 187.70519257 2.85861301 C189.21887207 5.5146637 189.21887207 5.5146637 189.21887207 8.6396637 C188.02968097 12.05858812 187.35119335 12.77339011 184.21887207 14.5146637 C181.57330635 14.80536334 179.16462425 14.92417001 176.520401 14.90234375 C175.74055263 14.90772929 174.96070426 14.91311483 174.15722412 14.91866356 C171.54162703 14.93298183 168.92653327 14.92583 166.31091309 14.91871643 C164.43668205 14.92441798 162.56245449 14.93138141 160.68823242 14.93951416 C155.59527088 14.95748449 150.50248125 14.9562699 145.4094975 14.95057178 C141.1598441 14.9474855 136.910224 14.95356612 132.66057533 14.95961052 C122.63627834 14.97366689 112.61206655 14.97208523 102.58776855 14.96070862 C92.24145666 14.94922613 81.89540394 14.9633028 71.54912621 14.99010509 C62.67004142 15.01224656 53.79103808 15.01890298 44.91192764 15.01302868 C39.60711618 15.0096542 34.30247086 15.01210674 28.99768257 15.02927971 C24.00962597 15.04472198 19.02195392 15.0408235 14.03391266 15.02197456 C12.20253257 15.01828114 10.37112417 15.02141902 8.53977013 15.03186035 C6.04084304 15.04502076 3.54319833 15.03356763 1.04432678 15.01586914 C0.31844834 15.02547415 -0.40743009 15.03507915 -1.15530485 15.04497522 C-4.71089036 14.99311038 -6.69162263 14.57053228 -9.7350626 12.67083836 C-11.78112793 10.5146637 -11.78112793 10.5146637 -12.34362793 7.5146637 C-11.02714056 0.49339773 -6.31056529 -0.07060249 0 0 Z " fill="#FABC56" transform="translate(97.7811279296875,138.48533630371094)"/>
<path d="M0 0 C0.78761719 -0.01583633 1.57523438 -0.03167267 2.38671875 -0.04798889 C3.64935547 -0.04054909 3.64935547 -0.04054909 4.9375 -0.03295898 C5.81019531 -0.03915756 6.68289062 -0.04535614 7.58203125 -0.05174255 C9.42446783 -0.05883661 11.26696857 -0.05567389 13.109375 -0.04296875 C15.9282824 -0.02909809 18.74387276 -0.06318225 21.5625 -0.10131836 C23.35416748 -0.10226954 25.14583911 -0.10041078 26.9375 -0.09545898 C27.77925781 -0.10871719 28.62101562 -0.1219754 29.48828125 -0.13563538 C30.27589844 -0.12310226 31.06351563 -0.11056915 31.875 -0.09765625 C32.90947266 -0.09621361 32.90947266 -0.09621361 33.96484375 -0.09474182 C37.15245423 0.92034741 38.21441789 2.73540508 39.9375 5.53344727 C40.44543457 8.72731018 40.44543457 8.72731018 40.45507812 12.37158203 C40.4620874 13.03888336 40.46909668 13.70618469 40.47631836 14.39370728 C40.49384844 16.58785257 40.48229639 18.78069634 40.46875 20.97485352 C40.47144607 22.50512437 40.47532945 24.03539356 40.48034668 25.56565857 C40.48623463 28.76757165 40.47770083 31.96903746 40.45898438 35.17089844 C40.43617523 39.27247166 40.44933373 43.37299901 40.47327423 47.47453403 C40.48773515 50.63246021 40.48312536 53.79013876 40.47276306 56.94807243 C40.47009756 58.46032778 40.47335939 59.97260571 40.48268127 61.48483467 C40.49285473 63.59873064 40.47733945 65.7109368 40.45507812 67.82470703 C40.45030457 69.62742821 40.45030457 69.62742821 40.44543457 71.46656799 C39.83353329 75.16119218 38.94282155 76.35131118 35.9375 78.53344727 C33.96484375 79.04138184 33.96484375 79.04138184 31.875 79.05102539 C30.69357422 79.06993835 30.69357422 79.06993835 29.48828125 79.0892334 C28.64652344 79.08113647 27.80476563 79.07303955 26.9375 79.06469727 C26.06480469 79.06852417 25.19210938 79.07235107 24.29296875 79.07629395 C22.45050908 79.07901217 20.60801076 79.07165721 18.765625 79.05493164 C15.94704066 79.03351974 13.13100515 79.05473528 10.3125 79.08032227 C8.52082771 79.07767897 6.72915701 79.07255396 4.9375 79.06469727 C3.67486328 79.07684265 3.67486328 79.07684265 2.38671875 79.0892334 C1.20529297 79.07032043 1.20529297 79.07032043 0 79.05102539 C-0.68964844 79.04784302 -1.37929687 79.04466064 -2.08984375 79.04138184 C-5.08213934 78.27090275 -6.23149862 76.99786528 -8.0625 74.53344727 C-8.57043457 71.421875 -8.57043457 71.421875 -8.58007812 67.71704102 C-8.5870874 67.04013214 -8.59409668 66.36322327 -8.60131836 65.665802 C-8.61888824 63.43376339 -8.60728073 61.2029982 -8.59375 58.97094727 C-8.59644524 57.41682696 -8.60032793 55.86270829 -8.60534668 54.30859375 C-8.6112403 51.05362878 -8.60268366 47.79910329 -8.58398438 44.54418945 C-8.56119428 40.37421182 -8.57431817 36.20526395 -8.59827423 32.0353241 C-8.61273624 28.82678484 -8.60812451 25.61848927 -8.59776306 22.40994263 C-8.59509686 20.87256752 -8.59836184 19.33517021 -8.60768127 17.79782104 C-8.61785429 15.64790341 -8.60233888 13.49964751 -8.58007812 11.34985352 C-8.57689575 10.1272583 -8.57371338 8.90466309 -8.57043457 7.64501953 C-7.74779981 2.60561553 -5.13823839 0.04618262 0 0 Z M5.9375 14.53344727 C5.9375 31.03344727 5.9375 47.53344727 5.9375 64.53344727 C12.5375 64.53344727 19.1375 64.53344727 25.9375 64.53344727 C25.9375 48.03344727 25.9375 31.53344727 25.9375 14.53344727 C19.3375 14.53344727 12.7375 14.53344727 5.9375 14.53344727 Z " fill="#FABC57" transform="translate(109.0625,379.466552734375)"/>
<path d="M0 0 C0.69787961 -0.00382555 1.39575921 -0.00765109 2.11478668 -0.01159257 C4.46478868 -0.02195197 6.81454767 -0.01792494 9.16456604 -0.01396179 C10.84470344 -0.01830666 12.52483886 -0.02348904 14.20497131 -0.02944946 C18.77724475 -0.04287518 23.34943572 -0.04341417 27.92172503 -0.04088616 C31.73404296 -0.03981885 35.54634404 -0.04469368 39.35865837 -0.04949158 C48.35012601 -0.06059917 57.34155188 -0.06101718 66.33302307 -0.05497742 C75.61933687 -0.04893566 84.90549923 -0.0612509 94.19178718 -0.08254749 C102.15530028 -0.10014126 110.11876508 -0.10616836 118.08229691 -0.10290974 C122.84267132 -0.10109315 127.60293772 -0.10377034 132.3632946 -0.11762428 C136.83910122 -0.13016189 141.31467113 -0.12829731 145.79047394 -0.11521339 C147.43563732 -0.11283914 149.08081715 -0.11561252 150.72596169 -0.12383652 C152.96716268 -0.1342345 155.20755915 -0.12626034 157.44873047 -0.11352539 C159.33220515 -0.113777 159.33220515 -0.113777 161.25372982 -0.1140337 C164.28785706 0.26069641 164.28785706 0.26069641 166.19186497 1.56533527 C168.04610023 4.43360269 167.64131275 6.96177664 167.28785706 10.26069641 C166.1914444 11.95521641 166.1914444 11.95521641 164.28785706 13.26069641 C161.25652313 13.64101315 161.25652313 13.64101315 157.45545959 13.64837646 C156.40735855 13.65645477 156.40735855 13.65645477 155.33808374 13.66469628 C152.99108549 13.67903155 150.64464683 13.67185876 148.29762268 13.66474915 C146.61733546 13.67044978 144.93705211 13.67741285 143.2567749 13.68554688 C138.68865939 13.70352626 134.12073545 13.70230109 129.55259514 13.69660449 C125.74270502 13.69351987 121.93285208 13.69959689 118.12296724 13.70564324 C109.13769738 13.71970223 100.15252258 13.71811545 91.16725159 13.70674133 C81.88825153 13.69525519 72.60954032 13.70934097 63.33057833 13.73613781 C55.37128041 13.7582655 47.41207337 13.76493892 39.45274687 13.7590614 C34.69571232 13.755684 29.93886302 13.75815872 25.18185425 13.77531242 C20.71006955 13.7907332 16.23871423 13.78688057 11.76694679 13.76800728 C10.12339678 13.764308 8.47981529 13.76746865 6.83629417 13.77789307 C4.59711314 13.79101411 2.3593724 13.77963703 0.12025452 13.76190186 C-1.13409645 13.76169257 -2.38844742 13.76148329 -3.68080902 13.76126766 C-6.71214294 13.26069641 -6.71214294 13.26069641 -8.65088654 11.45593357 C-10.24861897 8.15098146 -9.55212183 5.74983946 -8.71214294 2.26069641 C-5.86893709 -0.58250945 -3.98530765 0.00651756 0 0 Z " fill="#FABC57" transform="translate(95.71214294433594,98.73930358886719)"/>
<path d="M0 0 C1.29542725 -0.01272446 2.59085449 -0.02544891 3.92553711 -0.03855896 C5.35400574 -0.03237704 6.78247258 -0.02577105 8.2109375 -0.01878357 C9.72079308 -0.02584365 11.23064158 -0.03458905 12.74047852 -0.04489136 C16.83554496 -0.067384 20.93022491 -0.06444626 25.02532959 -0.05556989 C28.44494753 -0.05045859 31.86449293 -0.0577536 35.28410339 -0.06504196 C43.35092515 -0.08204016 51.41755772 -0.0784755 59.484375 -0.06175232 C67.80575111 -0.04482451 76.1266029 -0.06067452 84.44792175 -0.0929752 C91.59457785 -0.11966493 98.74107067 -0.12694899 105.88777161 -0.11846012 C110.15527993 -0.11352984 114.42247266 -0.11575191 118.68994141 -0.13624763 C122.70224068 -0.15459571 126.71378507 -0.14865761 130.7260437 -0.12404823 C132.19782128 -0.11903775 133.66965629 -0.12253642 135.14138794 -0.13519669 C137.15150021 -0.15111949 139.16179556 -0.1331602 141.171875 -0.11352539 C142.85869385 -0.11264593 142.85869385 -0.11264593 144.57958984 -0.1117487 C148.56229586 0.71810091 150.09562899 2.36363747 152.5859375 5.5146637 C152.5859375 8.69776209 152.25930352 10.56311326 150.41445065 13.17012119 C147.72978319 15.14421119 145.63885334 14.89530544 142.32972717 14.90234375 C141.01877579 14.91224838 139.7078244 14.92215302 138.35714722 14.93235779 C136.90093901 14.92811948 135.4447317 14.9235616 133.98852539 14.91871643 C132.45764161 14.92441756 130.92676208 14.93138082 129.39588928 14.93951416 C125.23471298 14.95748967 121.07374704 14.95626895 116.91254354 14.95057178 C113.44075095 14.94748613 109.96899914 14.95356543 106.49721235 14.95961052 C98.30775891 14.97366867 90.11840976 14.97208387 81.92895508 14.96070862 C73.47589034 14.94922677 65.02314284 14.96330114 56.57011992 14.99010509 C49.31653101 15.01224589 42.06304179 15.01890312 34.80942148 15.01302868 C30.47544571 15.00965391 26.14167331 15.01210844 21.80772591 15.02927971 C17.73235853 15.04472102 13.65746185 15.04082503 9.58211327 15.02197456 C8.08572608 15.01828077 6.58930424 15.02142017 5.09294891 15.03186035 C3.05171186 15.0450157 1.01035373 15.03114856 -1.03086853 15.01586914 C-2.17368255 15.01565986 -3.31649656 15.01545057 -4.49394131 15.01523495 C-8.06804499 14.4025571 -9.24531567 13.37261384 -11.4140625 10.5146637 C-11.9765625 7.5146637 -11.9765625 7.5146637 -11.4140625 4.5146637 C-7.71248446 0.77656694 -5.19392449 0.01296429 0 0 Z " fill="#FABC56" transform="translate(97.4140625,178.48533630371094)"/>
<path d="M0 0 C1.03196503 -0.0076664 1.03196503 -0.0076664 2.08477783 -0.01548767 C4.36463053 -0.02941601 6.64418201 -0.02842448 8.92407227 -0.02612305 C10.50586561 -0.03000832 12.08765791 -0.03434264 13.66944885 -0.03910828 C16.987512 -0.04657753 20.30546875 -0.04627423 23.62353516 -0.04101562 C27.8786783 -0.0352212 32.13338614 -0.0521476 36.3884573 -0.0753603 C39.65609795 -0.0900824 42.92363341 -0.09097142 46.19130135 -0.08785057 C47.76021245 -0.08836459 49.32912932 -0.09361749 50.89800835 -0.10366249 C53.09114849 -0.11598003 55.28343631 -0.10926424 57.4765625 -0.09765625 C58.72517563 -0.09828568 59.97378876 -0.0989151 61.26023865 -0.0995636 C64.30297852 0.2746582 64.30297852 0.2746582 66.20619202 1.57917786 C68.06153836 4.44728689 67.65647631 6.9753455 67.30297852 10.2746582 C66.2052002 11.96815491 66.2052002 11.96815491 64.30297852 13.2746582 C61.26696777 13.66233826 61.26696777 13.66233826 57.49243164 13.67871094 C56.46024757 13.68900581 56.46024757 13.68900581 55.4072113 13.69950867 C53.13267382 13.71780996 50.85882382 13.71393515 48.58422852 13.70825195 C47.00386327 13.71281185 45.42350001 13.71811685 43.84313965 13.72413635 C40.53100529 13.73307371 37.21911197 13.73063698 33.90698242 13.72070312 C29.65957093 13.70920631 25.41298992 13.72943183 21.16568756 13.75862026 C17.90231023 13.7769528 14.63913305 13.77669587 11.37571716 13.77098274 C9.80959406 13.7708292 8.24345766 13.77690094 6.67738342 13.78927422 C4.48889813 13.80412972 2.30196172 13.7935503 0.11352539 13.77636719 C-1.13207153 13.77620102 -2.37766846 13.77603485 -3.66101074 13.77586365 C-6.69702148 13.2746582 -6.69702148 13.2746582 -8.63439941 11.46986389 C-10.2341508 8.16503574 -9.53714662 5.76440878 -8.69702148 2.2746582 C-5.85936567 -0.56299761 -3.97527756 0.01467816 0 0 Z " fill="#FABB56" transform="translate(166.697021484375,219.725341796875)"/>
<path d="M0 0 C14.74707456 5.22005092 23.9266342 14.32495655 30.8046875 28.19140625 C32.46176311 32.36189856 33.49787126 35.63294021 31.96875 39.93359375 C29.96875 42.12109375 29.96875 42.12109375 26.53125 43.18359375 C22.96875 43.12109375 22.96875 43.12109375 20.78125 41.74609375 C18.73757559 38.78628943 17.48419376 35.79272262 16.0859375 32.4921875 C11.43326466 22.61745879 4.05971012 17.13450931 -5.96875 13.37109375 C-7.09152344 12.984375 -8.21429688 12.59765625 -9.37109375 12.19921875 C-12.03125 11.12109375 -12.03125 11.12109375 -13.03125 9.12109375 C-13.48073064 2.94073492 -13.48073064 2.94073492 -11.96875 0.18359375 C-7.81165111 -2.09610564 -4.34942253 -1.26110834 0 0 Z " fill="#FABC56" transform="translate(349.03125,204.87890625)"/>
<path d="M0 0 C1.48680519 -0.00945648 1.48680519 -0.00945648 3.00364685 -0.019104 C4.6145797 -0.01303131 4.6145797 -0.01303131 6.25805664 -0.00683594 C7.35791397 -0.00874939 8.4577713 -0.01066284 9.59095764 -0.01263428 C11.92034127 -0.01399717 14.24973247 -0.01029349 16.57910156 -0.00195312 C20.14999434 0.00873453 23.72038283 -0.00183988 27.29125977 -0.01464844 C29.5510265 -0.01332666 31.81079293 -0.01076389 34.07055664 -0.00683594 C35.14248764 -0.0108844 36.21441864 -0.01493286 37.3188324 -0.019104 C38.81036583 -0.00964752 38.81036583 -0.00964752 40.33203125 0 C41.20758163 0.00159119 42.08313202 0.00318237 42.98521423 0.00482178 C45.23071289 0.25878906 45.23071289 0.25878906 48.23071289 2.25878906 C49.12633404 5.42791005 49.51986502 7.43581761 48.41821289 10.57128906 C47.23071289 12.25878906 47.23071289 12.25878906 45.23071289 13.25878906 C43.6436809 13.36903851 42.05218189 13.41788916 40.46142578 13.43579102 C39.47022232 13.44862625 38.47901886 13.46146149 37.45777893 13.47468567 C35.84684608 13.48576607 35.84684608 13.48576607 34.20336914 13.49707031 C33.10351181 13.50514206 32.00365448 13.51321381 30.87046814 13.52153015 C28.54110291 13.53537582 26.21171734 13.5460958 23.88232422 13.55395508 C20.3112175 13.57120211 16.74102818 13.61508889 13.17016602 13.65917969 C10.91040722 13.66930326 8.65064053 13.67782041 6.39086914 13.68457031 C5.31893814 13.7020784 4.24700714 13.71958649 3.14259338 13.73762512 C2.14823776 13.73469955 1.15388214 13.73177399 0.12939453 13.72875977 C-0.74615585 13.73462601 -1.62170624 13.74049225 -2.52378845 13.74653625 C-4.76928711 13.25878906 -4.76928711 13.25878906 -6.58717346 11.45597839 C-8.36054127 8.1598276 -7.62329746 5.80621667 -6.76928711 2.25878906 C-4.26270807 -0.24778998 -3.46257825 0.00629846 0 0 Z " fill="#FABC56" transform="translate(93.769287109375,219.7412109375)"/>
</svg>
